<svg width="118" height="118" xmlns="http://www.w3.org/2000/svg"><rect width="118" height="118" rx="24" fill="#24292f"/><path transform="translate(10 11)" fill-rule="evenodd" d="M48.9 0C21.8 0 0 22 0 49.2c0 21.8 14 40.2 33.4 46.7 2.4.5 3.3-1.1 3.3-2.4 0-1.1-.1-5.1-.1-9.1-13.6 2.9-16.4-5.9-16.4-5.9-2.2-5.7-5.4-7.2-5.4-7.2-4.4-3 .3-3 .3-3 4.9.3 7.5 5.1 7.5 5.1 4.4 7.5 11.4 5.4 14.2 4.1.4-3.2 1.7-5.4 3.1-6.6-10.8-1.1-22.2-5.4-22.2-24.3 0-5.4 1.9-9.8 5-13.2-.5-1.2-2.2-6.3.5-13 0 0 4.1-1.3 13.4 5.1a47 47 0 0 1 12.2-1.6c4.1 0 8.3.6 12.2 1.6 9.3-6.4 13.4-5.1 13.4-5.1 2.7 6.8 1 11.8.5 13 3.2 3.4 5 7.8 5 13.2 0 18.9-11.4 23.1-22.3 24.3 1.8 1.5 3.3 4.5 3.3 9.1 0 6.6-.1 11.9-.1 13.5 0 1.3.9 2.9 3.3 2.4C83.7 90.6 97.7 72.2 97.7 52.5 97.7 22 75.8 0 48.9 0z" fill="#fff"/></svg>